<?xml version="1.0" encoding="UTF-8"?>
<svg xmlns="http://www.w3.org/2000/svg" version="1.1" viewBox="0 0 906.7 236.5">
  <defs>
    <style>
      .cls-1 {
        fill: #231f20;
      }
    </style>
  </defs>
  <!-- Generator: Adobe Illustrator 28.7.1, SVG Export Plug-In . SVG Version: 1.2.0 Build 142)  -->
  <g>
    <g id="Layer_1">
      <g>
        <path class="cls-1" d="M1.6,118.3c0-17.9,2.9-34.1,8.8-48.4,5.8-14.2,13.7-26.1,23.5-35.6,9.7-9.4,21-16.3,33.7-20.7,12.5-4.3,25.6-5.9,39.2-4.7,13.7,1.1,26.4,4.7,38.1,10.7,11.5,5.9,21,13.2,28.5,22.1l-34.2,48.1c-3.2-5-7.3-8.9-12.2-11.7-4.9-2.8-10.5-4.2-16.6-4.5s-9.8.7-14.2,2.6c-4.5,1.9-8.4,4.8-11.8,8.7-3.4,3.9-6.1,8.7-8,14.3-1.9,5.7-2.9,12-2.9,19s1,13.2,3.1,18.7c2,5.5,4.8,10.1,8.2,14,3.4,3.9,7.3,6.8,11.8,8.7,4.4,1.9,9.1,2.8,14,2.6s12.7-2.1,17.5-5.5c4.8-3.4,8.6-7.3,11.3-11.8l34.2,47.9c-7.3,9.4-16.5,17.2-27.5,23.4-11.2,6.3-24.2,10.1-39,11.3-13.6,1.1-26.7-.5-39.2-4.9-12.7-4.5-24-11.5-33.7-21-9.8-9.7-17.7-21.6-23.5-35.7-5.9-14.2-8.8-30.2-8.8-47.9Z"/>
        <path class="cls-1" d="M190,21.1l57.1,4v132.4l51.5-1.5v51.8l-108.6,7.7V21.1Z"/>
        <path class="cls-1" d="M301.1,117.2c0-14.3,2.1-27.2,6.3-38.5,4.1-11.3,9.8-20.7,16.9-28.3,7-7.5,15.3-13,24.7-16.6,9.2-3.5,19.1-4.9,29.5-4.1s19.6,3.5,28.1,8.1c8.4,4.6,15.6,10.7,21.6,18.3,6,7.6,10.6,16.5,13.9,26.9,3.3,10.3,4.9,21.8,4.9,34.4s-1.6,24.2-4.9,34.7c-3.3,10.6-7.9,19.8-13.9,27.5-6,7.9-13.2,14.1-21.6,18.9-8.5,4.8-17.9,7.6-28.1,8.3-10.4.8-20.3-.6-29.5-4.3-9.4-3.8-17.6-9.5-24.7-17.2-7.1-7.8-12.8-17.5-16.9-29.1-4.2-11.6-6.3-24.6-6.3-38.9ZM352,117.3c0,5.7.7,10.8,2,15.5,1.3,4.7,3.2,8.6,5.6,12,2.3,3.3,5.2,5.8,8.4,7.6,3.2,1.7,6.7,2.5,10.4,2.4s7.1-1.1,10.2-3c3.1-1.9,5.8-4.5,8-7.8,2.3-3.3,4-7.2,5.3-11.7,1.2-4.5,1.9-9.4,1.9-14.9s-.6-10.1-1.9-14.5c-1.2-4.4-3-8.2-5.3-11.3-2.3-3.1-4.9-5.5-8-7.3-3.1-1.8-6.5-2.8-10.2-2.9s-7.2.7-10.4,2.3c-3.3,1.7-6.1,4-8.4,7.1-2.4,3.1-4.2,6.9-5.6,11.5-1.3,4.6-2,9.6-2,15.1Z"/>
        <path class="cls-1" d="M514.7,197.6c-5.1.3-10.2.1-15.3-.6-5.1-.8-10-2-14.8-3.8-4.8-1.8-9.4-4-13.7-6.6-4.3-2.6-8.3-5.6-11.8-9l27.6-35.5c3.1,3.8,7.2,7.2,12.3,10.1,5,2.9,10.2,4.2,15.4,4s4.5-.6,6.5-1.7c1.9-1,2.9-2.9,2.9-5.6s-.3-2.6-1-3.6c-.6-1-1.8-2-3.4-3-1.7-1-3.9-2.2-6.9-3.4-2.9-1.2-6.6-2.7-11.1-4.3-4.4-1.7-8.6-3.7-12.7-6-4.1-2.4-7.8-5.3-11-8.8-3.2-3.5-5.8-7.7-7.7-12.7-1.9-4.9-2.9-10.9-2.9-17.8s1.7-17.9,5.2-24.5c3.4-6.6,7.8-11.9,13.1-15.9,5.3-4,11.1-6.7,17.6-8.2,6.4-1.5,12.6-2,18.8-1.6s16.4,2.9,24.6,7.2c8.1,4.2,15.2,9.9,21.2,17.1l-24.7,30.2c-2.7-4.2-6.1-7.5-10.1-9.7-4.1-2.3-7.7-3.5-11-3.6s-5.5.4-7.4,1.4c-1.9,1-2.9,2.7-2.9,5.1s1,4,2.9,5.2c2,1.2,5.1,2.6,9.5,4.4,4.4,1.8,9.1,3.8,13.9,6.1,4.8,2.3,9.2,5.2,13.2,8.7,4,3.5,7.2,7.8,9.7,12.8,2.5,5,3.8,11.3,3.8,18.7s-1.4,16.3-4.2,22.9c-2.8,6.6-6.5,12.2-11.2,16.7-4.7,4.6-10,8.2-16,10.7-6,2.5-12.2,4-18.6,4.4Z"/>
        <path class="cls-1" d="M588.4,47.1l85.1,4.6v37.2l-45.9-1.1v11.9l38,.5v35l-38,.5v12.9l45.9-1.1v37.2l-85.1,4.6V47.1Z"/>
        <path class="cls-1" d="M673.5,100.4l42.1.6v33.6l-42.1.6v-34.8Z"/>
        <path class="cls-1" d="M782,182.4c-7.3.4-13.8-.5-19.3-2.9-5.6-2.4-10.3-5.8-14.1-10.4-3.8-4.6-6.7-10-8.6-16.4-1.9-6.4-2.8-13.4-2.8-20.9V55.1l32.9,1.8v70c0,5.9,1.1,10.5,3.3,13.7,2.2,3.2,5.2,4.8,9.2,4.7,3.9,0,6.9-1.8,9.1-5.1,2.1-3.3,3.2-7.8,3.2-13.5V58.2l29.6,1.6v71c0,6.9-.9,13.4-2.6,19.5-1.8,6.1-4.4,11.4-7.8,16-3.5,4.6-7.9,8.3-13.1,11.2-5.3,2.9-11.6,4.5-18.8,5Z"/>
        <path class="cls-1" d="M866.4,138.3v36.2l-27.4,1.5V60.6l34.8,1.9c4,.2,7.8,1,11.6,2.4,3.7,1.4,7.1,3.6,10,6.5,2.9,3,5.2,6.8,7,11.5,1.7,4.7,2.6,10.6,2.6,17.6s-.9,12.4-2.6,17.1c-1.7,4.7-4,8.6-6.9,11.6-2.9,3-6.2,5.2-10,6.6-3.8,1.4-7.7,2.2-11.8,2.3h-7.5ZM866.4,91.4v18.1h5.6c2,0,3.8-.6,5.5-2,1.6-1.4,2.5-3.8,2.5-7.1s-.2-3.2-.7-4.3c-.4-1.1-1-2-1.8-2.6-.8-.6-1.6-1.1-2.6-1.4-1-.3-1.9-.4-2.9-.5h-5.6Z"/>
      </g>
    </g>
  </g>
</svg>