<?xml version="1.0" encoding="UTF-8"?>
<svg xmlns="http://www.w3.org/2000/svg" version="1.1" viewBox="0 0 692.7 391.7">
  <defs>
    <style>
      .cls-1 {
        fill: #e6e6e6;
      }

      .cls-1, .cls-2, .cls-3, .cls-4, .cls-5, .cls-6, .cls-7, .cls-8, .cls-9 {
        stroke-miterlimit: 10;
      }

      .cls-1, .cls-3, .cls-4, .cls-5, .cls-10, .cls-7, .cls-8 {
        stroke: #d9d9d9;
      }

      .cls-2 {
        stroke: #fff;
        stroke-width: 1px;
      }

      .cls-2, .cls-10, .cls-6 {
        stroke-linecap: round;
      }

      .cls-2, .cls-10, .cls-6, .cls-9 {
        fill: none;
      }

      .cls-11 {
        fill: #d9d9d9;
      }

      .cls-12, .cls-13, .cls-14, .cls-15 {
        fill: #f9b67c;
      }

      .cls-16, .cls-17, .cls-18, .cls-19, .cls-20 {
        fill: #fff;
      }

      .cls-16, .cls-14 {
        opacity: .2;
      }

      .cls-17 {
        opacity: .4;
      }

      .cls-18 {
        opacity: .6;
      }

      .cls-19, .cls-21, .cls-10, .cls-22, .cls-13 {
        opacity: .8;
      }

      .cls-21, .cls-4 {
        fill: #e0e0e0;
      }

      .cls-23 {
        fill: #f7953f;
      }

      .cls-3 {
        stroke-width: 1px;
      }

      .cls-3, .cls-8 {
        fill: #f2f2f2;
      }

      .cls-5 {
        fill: #ededed;
      }

      .cls-10 {
        stroke-linejoin: round;
      }

      .cls-6 {
        stroke: #fafafa;
        stroke-width: 2px;
      }

      .cls-24 {
        opacity: .5;
      }

      .cls-25 {
        opacity: 0;
      }

      .cls-26 {
        fill: #f68a2c;
      }

      .cls-7 {
        fill: #fafafa;
      }

      .cls-15 {
        opacity: .1;
      }

      .cls-9 {
        stroke: #f7953f;
      }
    </style>
  </defs>
  <!-- Generator: Adobe Illustrator 28.7.1, SVG Export Plug-In . SVG Version: 1.2.0 Build 142)  -->
  <g>
    <g id="Shadows">
      <path id="Shadow" class="cls-11" d="M481.3,123.2c14.9,8.6,14.9,22.6,0,31.2-14.9,8.6-39.2,8.6-54.1,0-14.9-8.6-14.9-22.6,0-31.2,14.9-8.6,39.2-8.6,54.1,0Z"/>
      <path id="Shadow-2" data-name="Shadow" class="cls-11" d="M550.1,143.5c18.6,10.7,18.6,28.1,0,38.9-18.6,10.7-48.7,10.7-67.3,0-18.6-10.7-18.6-28.1,0-38.9,18.6-10.7,48.7-10.7,67.3,0Z"/>
      <path id="Shadow-3" data-name="Shadow" class="cls-11" d="M555.3,247.6l-212.5,122.7c-8.7,5-19.4,5-28.1,0l-186.1-107.4,237.6-137.2,189,109.1c4.9,2.9,4.9,10,0,12.9Z"/>
    </g>
    <g id="Coffee">
      <g id="Coffee_Cup">
        <path class="cls-12" d="M481.8,47.4c14.5,8.4,14.5,22,0,30.4-14.5,8.4-38.1,8.4-52.6,0-14.5-8.4-14.5-22,0-30.4,14.5-8.4,38.1-8.4,52.6,0Z"/>
        <g>
          <path class="cls-12" d="M482.3,24.1c-14.8-8.6-38.9-8.6-53.7,0-7.9,4.6-11.6,10.7-11.1,16.7h0l8.1,94.5s0,0,0,0h0s0,0,0,0c.3,4.1,3.2,8.2,8.7,11.4,11.7,6.7,30.6,6.7,42.3,0,5.5-3.2,8.4-7.2,8.7-11.4h0l8.1-94.5h0c.6-6-3.1-12.1-11.1-16.7Z"/>
          <path class="cls-19" d="M482.3,24.1c-14.8-8.6-38.9-8.6-53.7,0-7.9,4.6-11.6,10.7-11.1,16.7h0l8.1,94.5s0,0,0,0h0s0,0,0,0c.3,4.1,3.2,8.2,8.7,11.4,11.7,6.7,30.6,6.7,42.3,0,5.5-3.2,8.4-7.2,8.7-11.4h0l8.1-94.5h0c.6-6-3.1-12.1-11.1-16.7Z"/>
          <path class="cls-14" d="M417.6,40.8l8.1,94.5h0c.2,2.1,1,4.1,2.4,6.1,1.5,1.9,3.5,3.7,6.3,5.3,4.4,2.6,9.9,4.1,15.6,4.8-4.9-2.2-8.6-5.9-8.8-11.8-.1-3.9-.4-11.1-.7-19.5,12.7,3.6,28.5,2.3,39.1-3.8,3.7-2.1,6.4-4.6,8-7.3l3.1-36.4c-1.8,3-4.7,5.8-8.9,8.2-11.5,6.6-28.6,8-42.5,4.2-.2-5.8-.7-17.9-.9-25.8-3.5-1-6.8-2.4-9.7-4.1-6.9-4-10.6-9.1-11.1-14.3Z"/>
          <path class="cls-12" d="M482.3,24.1c14.8,8.6,14.8,22.4,0,31-14.8,8.6-38.9,8.6-53.7,0-14.8-8.6-14.8-22.4,0-31,14.8-8.6,38.9-8.6,53.7,0Z"/>
          <path class="cls-18" d="M482.3,24.1c14.8,8.6,14.8,22.4,0,31-14.8,8.6-38.9,8.6-53.7,0-14.8-8.6-14.8-22.4,0-31,14.8-8.6,38.9-8.6,53.7,0Z"/>
          <path class="cls-11" d="M481,25.5c14.1,7.8,14.1,20.4,0,28.2-14.1,7.8-36.9,7.8-51,0-14.1-7.8-14.1-20.4,0-28.2,14.1-7.8,36.9-7.8,51,0Z"/>
        </g>
        <g>
          <path class="cls-12" d="M492.6,63.7l-3.1,36.6c-.4,4.7-3.7,9.4-9.9,13-13.3,7.7-34.9,7.7-48.2,0-6.7-3.9-10-8.9-10-13.9l-3.1-35.5c.5,5.1,4.1,10.1,10.8,13.9,14.5,8.4,38.1,8.4,52.6,0,6.8-3.9,10.4-9,10.8-14.1h0Z"/>
          <path class="cls-16" d="M492.6,63.7l-3.1,36.6c-.4,4.7-3.7,9.4-9.9,13-13.3,7.7-34.9,7.7-48.2,0-6.7-3.9-10-8.9-10-13.9l-3.1-35.5c.5,5.1,4.1,10.1,10.8,13.9,14.5,8.4,38.1,8.4,52.6,0,6.8-3.9,10.4-9,10.8-14.1h0Z"/>
          <path class="cls-13" d="M441,82.4c-4.3-1-8.4-2.6-11.9-4.6-6.7-3.9-10.3-8.9-10.8-13.9l3.1,35.5c0,5,3.3,10.1,10,13.9,3.2,1.9,6.9,3.3,10.9,4.2l-1.2-35.2Z"/>
          <path class="cls-20" d="M442.9,95.1c1.3-1.2,2.9-2.3,4.7-3,.7-.3.8-1.3,0-1.6-3.4-1.7-8.2-.6-11.6,3-3.6,3.7-4.3,8.9-2,12.1.3.4.9.5,1.3.2,1.8-1.4,3-3.1,4.2-5.8.8-1.8,1.9-3.4,3.3-4.8ZM450.6,93.4c-.2-.4-.8-.6-1.2-.4-3.2,1.4-5.7,3.6-7.4,6.8-.8,1.6-1.4,3.4-2.5,4.9-.8,1.1-1.7,2-2.8,2.6-.2,0,0,.5.1.5,3.4,1.5,8,.3,11.2-3.1,3.3-3.5,4.2-8.1,2.5-11.4Z"/>
          <g>
            <path class="cls-21" d="M435.4,105.7c1.8-1.4,3-3.1,4.2-5.8.5-1.1,1.1-2.3,1.9-3.2l-.2-6.5c-1.8.6-3.7,1.7-5.2,3.3-3.6,3.7-4.3,8.9-2,12.1.3.4.9.5,1.3.2Z"/>
            <path class="cls-21" d="M441.7,100.6c-.6,1.4-1.2,2.9-2.1,4.1-.8,1.1-1.7,2-2.8,2.6-.2,0,0,.5.1.5,1.5.7,3.3.8,5,.4l-.3-7.7Z"/>
          </g>
        </g>
        <g>
          <path class="cls-12" d="M429.5,25.9c6.9-4,16.1-6.2,26-6.2s19.1,2.2,26,6.2c6.5,3.8,10.1,8.6,10.1,13.7s-.3,2.9-.8,4.2c-1.4-3.5-4.6-6.8-9.2-9.5-6.9-4-16.1-6.2-26-6.2s-19.1,2.2-26,6.2c-4.7,2.7-7.8,6-9.2,9.5-.6-1.4-.8-2.8-.8-4.2,0-5.1,3.6-10,10.1-13.7Z"/>
          <path class="cls-19" d="M429.5,25.9c6.9-4,16.1-6.2,26-6.2s19.1,2.2,26,6.2c6.5,3.8,10.1,8.6,10.1,13.7s-.3,2.9-.8,4.2c-1.4-3.5-4.6-6.8-9.2-9.5-6.9-4-16.1-6.2-26-6.2s-19.1,2.2-26,6.2c-4.7,2.7-7.8,6-9.2,9.5-.6-1.4-.8-2.8-.8-4.2,0-5.1,3.6-10,10.1-13.7Z"/>
          <path class="cls-15" d="M455.5,19.7c9.8,0,19.1,2.2,26,6.2,6.5,3.8,10.1,8.6,10.1,13.7s-.3,2.9-.8,4.2c-1.4-3.5-4.6-6.8-9.2-9.5-6.9-4-16.1-6.2-26-6.2s-1.2,0-1.8,0c2.4,0,7.4-1.2,5.7-4.5-1.8-3.4-6.2-4-9.5-3.8,1.8-.2,3.7-.2,5.6-.2Z"/>
          <path class="cls-15" d="M419.4,39.6c0-4.5,2.8-8.8,7.9-12.4-2.4,2.8-1.1,7.8,4.1,6,0,0,0,0,0,0-.7.3-1.4.7-2,1.1-4.7,2.7-7.8,6-9.2,9.5-.6-1.4-.8-2.8-.8-4.2Z"/>
          <path class="cls-26" d="M429.5,34.4c6.9-4,16.1-6.2,26-6.2s19.1,2.2,26,6.2c4.7,2.7,7.8,6,9.2,9.5-1.4,3.5-4.6,6.8-9.2,9.5-6.9,4-16.1,6.2-26,6.2s-19.1-2.2-26-6.2c-4.7-2.7-7.8-6-9.2-9.5,1.4-3.5,4.6-6.8,9.2-9.5Z"/>
          <path class="cls-23" d="M460,28.3c.5.3.9.7,1.2,1.2.5.8,0,1.9.4,2.7.4.7,1.1,1.4,2.3,1.7,1.3.3,3.2.5,4.8,1.8.4.3.6.7.7,1.2.2.7-.2,1.5-.6,2.1-.4.6-1,1.1-1.5,1.7-.4.6-.7,1.4-.5,2.1.2.7.8,1.1,1.3,1.5,2.2,1.4,4.9,2,7,3.6.6.4,1.2,1,1.4,1.7.4,1.1,0,2.4-.7,3.2-.4.5-1.1,1.3-3.3,1.9-.8.2-1.5.5-2.3.6-2.3.5-5,2.7-7.1,3.8,6.9-.8,13.3-2.8,18.3-5.8,4.7-2.7,7.8-6,9.2-9.5-1.4-3.5-4.6-6.8-9.2-9.5-5.8-3.4-13.3-5.5-21.5-6.1ZM481.8,45.4c.2,0,.4,0,.6,0,.2,0,.2.2,0,.3-.2,0-.4,0-.6,0-.2,0-.2-.2,0-.3ZM478.2,50c.5-.3,1.3-.3,1.8,0,.5.3.5.7,0,1-.5.3-1.3.3-1.8,0-.5-.3-.5-.7,0-1ZM477.5,48.3c.2,0,.4,0,.6,0,.2,0,.2.2,0,.3-.2,0-.4,0-.6,0-.2,0-.2-.2,0-.3ZM477.1,43.2c.8-.5,2-.5,2.8,0s.8,1.2,0,1.6c-.8.5-2,.5-2.8,0-.8-.5-.8-1.2,0-1.6ZM471.1,36.1c-.3.1-.7.1-.9,0-.3-.1-.3-.4,0-.5.3-.1.7-.1.9,0,.3.1.3.4,0,.5ZM472.4,38.8c-.8-.5-.8-1.2,0-1.6.8-.5,2-.5,2.8,0,.8.5.8,1.2,0,1.6-.8.5-2,.5-2.8,0ZM473.4,44.5c.3-.1.7-.1.9,0,.3.1.3.4,0,.5-.3.1-.7.1-.9,0-.3-.1-.3-.4,0-.5ZM472.5,41c.9.5.9,1.4,0,1.9-.9.5-2.3.5-3.2,0-.9-.5-.9-1.4,0-1.9.9-.5,2.3-.5,3.2,0ZM466.4,33c.2,0,.4,0,.6,0,.2,0,.2.2,0,.3-.2,0-.4,0-.6,0-.2,0-.2-.2,0-.3Z"/>
          <path class="cls-23" d="M420.3,43.9c1.4,3.5,4.6,6.8,9.2,9.5,6,3.5,13.9,5.6,22.3,6.1-.3-.2-.6-.3-.9-.5-1.8-.9-3.8-1.8-5.8-1.9-1.6,0-3.5.2-4.5-1-.5-.5-.6-1.3-1.1-1.8-.5-.6-1.3-1-2-1.2-2-.6-4.2-.5-6.3-.7-.6,0-1.2-.3-1.4-.8-.2-.5,0-1.1.5-1.6.4-.4.8-.9.9-1.4.1-.7-.4-1.4-.9-1.9-.6-.5-1.2-.9-1.5-1.6-.4-.9,0-2.1.5-2.9.6-.8,1.6-1.3,2.4-1.9,1.6-1,3.2-2.1,4.6-3.5.9-.9,1.8-2.3,1.1-3.4-.3-.5-.8-.7-1.3-.9-.5-.2-.9-.3-1.4-.4-1.8.7-3.5,1.5-5.1,2.5-4.7,2.7-7.8,6-9.2,9.5ZM432.4,34c.8-.5,2-.5,2.8,0,.8.5.8,1.2,0,1.6-.8.5-2,.5-2.8,0-.8-.5-.8-1.2,0-1.6ZM430.1,37c.4-.2,1.1-.2,1.5,0,.4.2.4.6,0,.9-.4.2-1.1.2-1.5,0-.4-.2-.4-.6,0-.9ZM435.9,54.2c.5-.3,1.3-.3,1.7,0,.5.3.5.7,0,1-.5.3-1.3.3-1.7,0-.5-.3-.5-.7,0-1ZM433.8,53.7c.3-.2.7-.2,1,0,.3.2.3.4,0,.6-.3.2-.7.2-1,0-.3-.2-.3-.4,0-.6ZM426.5,45.1c-.2.1-.6.1-.8,0-.2-.1-.2-.3,0-.5.2-.1.6-.1.8,0,.2.1.2.3,0,.5ZM425.3,47.2c1-.6,2.7-.6,3.7,0,1,.6,1,1.5,0,2.1-1,.6-2.7.6-3.7,0-1-.6-1-1.5,0-2.1ZM424,41.3c.6-.3,1.5-.3,2,0,.6.3.6.9,0,1.2-.6.3-1.5.3-2,0-.6-.3-.6-.8,0-1.2ZM421.9,42.6c.2-.1.6-.1.8,0,.2.1.2.3,0,.5-.2.1-.6.1-.8,0-.2-.1-.2-.3,0-.5Z"/>
          <path class="cls-25" d="M460.5,28.4c7.9.6,15.2,2.7,20.9,6,4.7,2.7,7.8,6,9.2,9.5-1.4,3.5-4.6,6.8-9.2,9.5-1.7,1-3.6,1.9-5.6,2.7,3.8-2.2,7.6-5.5,7.7-9.9,0-8.8-10.5-16.3-23-17.7Z"/>
        </g>
      </g>
      <g id="Lid">
        <g>
          <g>
            <path class="cls-26" d="M486.1,134c16.6-9.6,43.4-9.6,59.9,0,8.3,4.8,12.4,11,12.4,17.3,0,1.2,0,6.2,0,7.5,0,6.2-4.2,12.5-12.4,17.2-16.6,9.6-43.4,9.6-59.9,0-8.3-4.8-12.4-11-12.4-17.3,0-1.2,0-6.1,0-7.4,0-6.3,4.1-12.5,12.4-17.3Z"/>
            <path d="M533.1,128.8c4.7,1.2,9.2,2.9,13,5.1,8.3,4.8,12.4,11,12.4,17.3,0,1.2,0,6.2,0,7.5,0,6.2-4.2,12.5-12.4,17.2-3.9,2.2-8.3,3.9-13,5.1v-52.2Z"/>
          </g>
          <path class="cls-23" d="M486.1,134c-16.6,9.6-16.6,25,0,34.6,16.6,9.6,43.4,9.6,59.9,0,16.6-9.6,16.6-25,0-34.6-16.6-9.6-43.4-9.6-59.9,0Z"/>
        </g>
        <g>
          <path class="cls-26" d="M478.2,148.6h0l1.4-12.5h0c.5-4.7,4.1-9.3,10.6-12.9,14.3-7.8,37.4-7.8,51.7,0,6.6,3.6,10.1,8.2,10.6,12.9h0l1.4,12.5h0c.6,5.6-3,11.4-10.9,15.7-14.6,8-39.4,8-54,0-7.9-4.3-11.5-10.1-10.9-15.7Z"/>
          <path d="M542,123.1c6.6,3.6,10.1,8.2,10.6,12.9h0l1.4,12.5h0c.6,5.6-3,11.4-10.9,15.7-3,1.6-6.4,2.9-10.1,3.9l-.9-14.9-1.7-34.4c4.2,1,8.1,2.4,11.6,4.3Z"/>
          <path class="cls-23" d="M490.2,123.1c-14.3,7.8-14.3,20.5,0,28.3,14.3,7.8,37.4,7.8,51.7,0,14.3-7.8,14.3-20.5,0-28.3s-37.4-7.8-51.7,0Z"/>
          <path d="M493.8,126.2c-12.3,6.1-12.3,16.1,0,22.2,12.3,6.1,32.3,6.1,44.6,0,12.3-6.1,12.3-16.1,0-22.2-12.3-6.1-32.3-6.1-44.6,0Z"/>
          <path class="cls-23" d="M493.8,134.3c12.3-6.1,32.3-6.1,44.6,0,4.1,2,6.8,4.5,8.2,7-1.4,2.6-4.1,5-8.2,7-12.3,6.1-32.3,6.1-44.6,0-4.1-2-6.8-4.5-8.2-7,1.4-2.6,4.1-5,8.2-7Z"/>
          <path class="cls-23" d="M489.4,130.7l37.2,21.5c4.3-.8,8.4-2,11.9-3.7,5.7-2.8,8.8-6.5,9.2-10.2-.4-3.7-3.5-7.4-9.2-10.3-12.3-6.1-32.3-6.1-44.6,0-1.7.9-3.2,1.8-4.4,2.8Z"/>
          <path class="cls-26" d="M487,139.3l23.2,13.4c5.4.5,11.1.3,16.3-.6l-37.2-21.5-2.3,8.7Z"/>
          <path class="cls-24" d="M487.9,148.7l5.4,3.1c.5.3,1.4.3,2,0h0c.6-.3.6-.8.1-1.1l-5.4-3.1c-.5-.3-1.4-.3-2,0h0c-.6.3-.6.8-.1,1.1Z"/>
        </g>
        <path class="cls-26" d="M484.6,138.2c1.2,6.8,8.7,10.2,14.6,12.1,13,4,31.9,3.4,43.2-4.6,4.2-3,6.8-8,3.9-12.9,3,4.9.5,10-3.7,13.2-11.3,8.3-30.6,8.9-43.6,4.7-6-2.1-13.4-5.6-14.5-12.5h0Z"/>
      </g>
    </g>
    <g id="Newspaper">
      <g id="Newspaper-2" data-name="Newspaper">
        <path class="cls-4" d="M295.8,351.6s8.6,5,19.3,11.1c5.9,3.4,11.2,3.9,14.7,1.8l216-124.6c-3.5,2-8.8,1.6-14.8-1.8-10.7-6.1-19.3-11.1-19.3-11.1l-158.7-91.5-215.9,124.7,158.7,91.4Z"/>
        <path class="cls-1" d="M537.4,234.6l-184.3-106.2-215.9,124.7,184.3,106.2c2.4,1.4,4.5,1.5,6.1.6l215.9-124.7c-1.6.9-3.7.8-6.1-.6Z"/>
        <path class="cls-5" d="M539,228.7l-185.9-107.1-215.9,124.7,185.9,107.1c.6.4,1.3.3,1.9,0l215.9-124.7c-.5.3-1.2.4-1.9,0Z"/>
        <path class="cls-3" d="M324.9,353.4c.5-.3.9-.9.9-1.6v-.7c0-3-1.6-5.8-4.2-7.3l-184.5-106.3,215.9-124.7,184.5,106.3c2.6,1.5,4.2,4.3,4.2,7.3v.7c0,.7-.4,1.3-.9,1.6"/>
        <path class="cls-8" d="M534.6,209.8l-181.5-104.6-215.9,124.7,181.5,104.6c6.3,3.6,11.5,12.5,11.5,19.8h0c0,2.8-1,4.7-2.5,5.6l215.9-124.7c1.6-.9,2.6-2.8,2.6-5.6h0c0-7.3-5.2-16.2-11.5-19.8Z"/>
        <path class="cls-7" d="M530.6,200.2l-19.9-11.4-157.6-90.8-215.9,124.7,177.4,102.2c11,6.3,19.9,19.9,19.9,30.2s-1.7,7.9-4.6,9.5l216-124.6c2.8-1.6,4.5-4.9,4.5-9.5,0-10.4-8.9-23.9-19.9-30.2Z"/>
        <g>
          <g>
            <path class="cls-12" d="M370.9,219.8l86.8-50.1c1.2-.7,3-.8,3.9-.3l46.3,26.7c.9.5.7,1.5-.6,2.2l-86.8,50.1c-1.2.7-3,.8-3.9.3l-46.3-26.7c-.9-.5-.7-1.5.6-2.2Z"/>
            <path class="cls-19" d="M370.9,219.8l86.8-50.1c1.2-.7,3-.8,3.9-.3l46.3,26.7c.9.5.7,1.5-.6,2.2l-86.8,50.1c-1.2.7-3,.8-3.9.3l-46.3-26.7c-.9-.5-.7-1.5.6-2.2Z"/>
            <path class="cls-12" d="M454.1,193.1l-3,13.8,22.4,2.3-65.1,1.3.9,34,7.4,4.3c.9.5,2.6.4,3.9-.3l86.8-50.1c1.2-.7,1.5-1.7.6-2.2l-6-3.5-47.7.4Z"/>
            <path class="cls-12" d="M452.6,180.6c2.4-1.4,5.8-1.7,7.6-.6,1.8,1,1.3,3-1.1,4.4-2.4,1.4-5.8,1.7-7.6.6-1.8-1-1.3-3,1.1-4.4Z"/>
          </g>
          <g>
            <g>
              <path class="cls-23" d="M209.6,234.2s.6.2,2.2,1.1c1.7,1,1.9,1.3,1.9,1.3l-15,8.7s-.6-.2-2.2-1.1c-1.5-.9-2-1.3-2-1.3l4.6-2.7-21.2-12.2-3.9,2.2s-.6-.2-2.2-1.1c-1.6-.9-2-1.3-2-1.3l13-7.5,32.2,4.3-15.7-9.1-3.9,2.2s-.6-.2-2.2-1.1c-1.6-.9-2-1.3-2-1.3l14.7-8.5s.6.2,2.2,1.1c1.7,1,2,1.3,2,1.3l-4.4,2.5,25.4,14.7-7.2,4.2-37-4.9,18.5,10.7,3.9-2.2Z"/>
              <path class="cls-23" d="M235.6,189.8l7.3,4.2s-.9.7-2.2,1.4c-1.5.9-2.6,1.4-2.6,1.4l-3.1-1.8-11.7,6.7,7.7,4.5,5.6-3.2-3.1-1.8s.7-.6,2.3-1.5c1.8-1,2.4-1.3,2.4-1.3l10.4,6s-.3.3-2.2,1.4c-1.6,1-2.5,1.3-2.5,1.3l-3.2-1.8-5.6,3.2,9.4,5.4,12.1-7-3.9-2.3s.8-.6,2.3-1.5c1.3-.8,2.5-1.3,2.5-1.3l8.1,4.7-27.8,16.1s-.9-.4-2.2-1.1c-1.4-.8-2-1.3-2-1.3l4.4-2.5-21.2-12.2-3.9,2.2s-.8-.3-2.2-1.1c-1.2-.7-2-1.3-2-1.3l26.9-15.5Z"/>
              <path class="cls-23" d="M263.9,179.8l6.7-3.9,25.6,7.8.3-.2s-10.5-9.1-17.2-14.1l-3.9,2.2s-.9-.4-2.3-1.2c-1.4-.8-1.9-1.2-1.9-1.2l13.2-7.6s.8.3,2.2,1.1c1.6.9,2,1.3,2,1.3l-3.4,2c7.4,5.7,20.8,17.3,20.8,17.3l-9.9,5.7-21.1-6.4,11.1,12.2-9.9,5.7s-20.2-7.4-30-12l-3.4,2s-.9-.4-2.3-1.2c-1.4-.8-1.9-1.2-1.9-1.2l13.7-7.9s.8.3,2.2,1.1c1.6.9,2,1.3,2,1.3l-3.9,2.2c8.5,4.1,24.3,10,24.3,10l.3-.2-13.5-14.7Z"/>
              <path class="cls-23" d="M316.1,152.4s-.6.5-2.4,1.6c-2,1.1-2.9,1.5-2.9,1.5l-3-1.7s-2.8.3-6.1,2.2c-3.2,1.9-3.9,4.3-1.8,5.6,1.5.8,3.6,1.4,6.3.5l8.1-2.6c4.4-1.4,11.6-3.1,17.2,0,5.4,3.1,4.1,7.5-4,12.2-7.8,4.5-14.9,4.5-14.9,4.5l-5.6-3.2s.8-.6,2.4-1.6c1.8-1,2.9-1.5,2.9-1.5l3.1,1.8s3.3-.2,7.5-2.6c4.6-2.6,4.1-4.7,2.1-5.8-2.1-1.2-5.7-.9-8.5,0l-8.8,2.9c-6.1,2-10.6,1.2-14.3-.9-4.9-2.9-2.9-8.1,3.8-11.9,5.5-3.2,13.6-4,13.6-4l5.3,3Z"/>
            </g>
            <g>
              <polygon class="cls-12" points="404.6 138.7 209.5 251.4 206.8 249.8 401.9 137.1 404.6 138.7"/>
              <polygon class="cls-12" points="400.3 136.2 205.2 248.9 204.1 248.3 399.2 135.6 400.3 136.2"/>
            </g>
            <g>
              <polygon class="cls-12" points="157.8 221.7 353 109 355.7 110.6 160.5 223.2 157.8 221.7"/>
              <polygon class="cls-12" points="162.1 224.1 357.3 111.5 358.4 112.1 163.2 224.8 162.1 224.1"/>
            </g>
            <g>
              <polygon class="cls-11" points="365 115.9 323 140 349.8 155.4 391.8 131.3 365 115.9"/>
              <g>
                <line class="cls-2" x1="332.2" y1="140.7" x2="366.1" y2="121.3"/>
                <line class="cls-2" x1="336.2" y1="143" x2="370" y2="123.6"/>
                <line class="cls-2" x1="360" y1="133.9" x2="373.9" y2="125.9"/>
                <line class="cls-2" x1="344" y1="147.6" x2="377.9" y2="128.2"/>
                <line class="cls-2" x1="347.9" y1="149.8" x2="381.8" y2="130.5"/>
              </g>
            </g>
          </g>
          <g>
            <polygon class="cls-12" points="323.4 212.9 233.1 265 218.9 256.8 309.2 204.7 323.4 212.9"/>
            <polygon class="cls-19" points="323.4 212.9 233.1 265 218.9 256.8 309.2 204.7 323.4 212.9"/>
          </g>
          <g>
            <g class="cls-22">
              <path class="cls-11" d="M241.8,271c-.3,0-.7-.2-.9-.5-.3-.5-.1-1.1.4-1.4l90.3-52.1c.5-.3,1.1-.1,1.4.4.3.5.1,1.1-.4,1.4l-90.3,52.1c-.2,0-.3.1-.5.1Z"/>
            </g>
            <g class="cls-22">
              <path class="cls-11" d="M249.3,275.4c-.3,0-.7-.2-.9-.5-.3-.5-.1-1.1.4-1.4l90.3-52.1c.5-.3,1.1-.1,1.4.4.3.5.1,1.1-.4,1.4l-90.3,52.1c-.2,0-.3.1-.5.1Z"/>
            </g>
            <g class="cls-22">
              <path class="cls-11" d="M256.9,279.7c-.3,0-.7-.2-.9-.5-.3-.5-.1-1.1.4-1.4l90.3-52.1c.5-.3,1.1-.1,1.4.4.3.5.1,1.1-.4,1.4l-90.3,52.1c-.2,0-.3.1-.5.1Z"/>
            </g>
            <g class="cls-22">
              <path class="cls-11" d="M264.4,284.1c-.3,0-.7-.2-.9-.5-.3-.5-.1-1.1.4-1.4l90.3-52.1c.5-.3,1.1-.1,1.4.4.3.5.1,1.1-.4,1.4l-90.3,52.1c-.2,0-.3.1-.5.1Z"/>
            </g>
            <g class="cls-22">
              <path class="cls-11" d="M271.9,288.5c-.3,0-.7-.2-.9-.5-.3-.5-.1-1.1.4-1.4l90.3-52.1c.5-.3,1.1-.1,1.4.4.3.5.1,1.1-.4,1.4l-90.3,52.1c-.2,0-.3.1-.5.1Z"/>
            </g>
            <g class="cls-22">
              <path class="cls-11" d="M279.5,292.9c-.3,0-.7-.2-.9-.5-.3-.5-.1-1.1.4-1.4l90.3-52.1c.5-.3,1.1-.1,1.4.4.3.5.1,1.1-.4,1.4l-90.3,52.1c-.2,0-.3.1-.5.1Z"/>
            </g>
            <g class="cls-22">
              <path class="cls-11" d="M287,297.3c-.3,0-.7-.2-.9-.5-.3-.5-.1-1.1.4-1.4l47.4-27.4c.5-.3,1.1-.1,1.4.4.3.5.1,1.1-.4,1.4l-47.4,27.4c-.2,0-.3.1-.5.1Z"/>
            </g>
            <g class="cls-22">
              <path class="cls-11" d="M294.6,301.6c-.3,0-.7-.2-.9-.5-.3-.5-.1-1.1.4-1.4l90.3-52.1c.5-.3,1.1-.1,1.4.4.3.5.1,1.1-.4,1.4l-90.3,52.1c-.2,0-.3.1-.5.1Z"/>
            </g>
            <g class="cls-22">
              <path class="cls-11" d="M302.1,306c-.3,0-.7-.2-.9-.5-.3-.5-.1-1.1.4-1.4l90.3-52.1c.5-.3,1.1-.1,1.4.4.3.5.1,1.1-.4,1.4l-90.3,52.1c-.2,0-.3.1-.5.1Z"/>
            </g>
            <g class="cls-22">
              <path class="cls-11" d="M309.6,310.4c-.3,0-.7-.2-.9-.5-.3-.5-.1-1.1.4-1.4l90.3-52.1c.5-.3,1.1-.1,1.4.4.3.5.1,1.1-.4,1.4l-90.3,52.1c-.2,0-.3.1-.5.1Z"/>
            </g>
            <g class="cls-22">
              <path class="cls-11" d="M317.2,314.8c-.3,0-.7-.2-.9-.5-.3-.5-.1-1.1.4-1.4l90.3-52.1c.5-.3,1.1-.1,1.4.4.3.5.1,1.1-.4,1.4l-90.3,52.1c-.2,0-.3.1-.5.1Z"/>
            </g>
            <g class="cls-22">
              <path class="cls-11" d="M324.7,319.1c-.3,0-.7-.2-.9-.5-.3-.5-.1-1.1.4-1.4l72.1-41.6c.5-.3,1.1-.1,1.4.4.3.5.1,1.1-.4,1.4l-72.1,41.6c-.2,0-.3.1-.5.1Z"/>
            </g>
            <g class="cls-22">
              <path class="cls-11" d="M331.4,324c-.3,0-.7-.2-.9-.5-.3-.5-.1-1.1.4-1.4l90.3-52.1c.5-.3,1.1-.1,1.4.4.3.5.1,1.1-.4,1.4l-90.3,52.1c-.2,0-.3.1-.5.1Z"/>
            </g>
            <g class="cls-22">
              <path class="cls-11" d="M336.9,329.6c-.3,0-.7-.2-.9-.5-.3-.5-.1-1.1.4-1.4l90.3-52.1c.5-.3,1.1-.1,1.4.4.3.5.1,1.1-.4,1.4l-90.3,52.1c-.2,0-.3.1-.5.1Z"/>
            </g>
            <g class="cls-22">
              <path class="cls-11" d="M341.1,335.9c-.3,0-.7-.2-.9-.5-.3-.5-.1-1.1.4-1.4l90.3-52.1c.5-.3,1.1-.1,1.4.4.3.5.1,1.1-.4,1.4l-90.3,52.1c-.2,0-.3.1-.5.1Z"/>
            </g>
            <g class="cls-22">
              <path class="cls-11" d="M344.1,342.9c-.3,0-.7-.2-.9-.5-.3-.5-.1-1.1.4-1.4l90.3-52.1c.5-.3,1.1-.1,1.4.4.3.5.1,1.1-.4,1.4l-90.3,52.1c-.2,0-.3.1-.5.1Z"/>
            </g>
            <g class="cls-22">
              <path class="cls-11" d="M345,351.1c-.3,0-.7-.2-.9-.5-.3-.5-.1-1.1.4-1.4l90.3-52.1c.5-.3,1.1-.1,1.4.4.3.5.1,1.1-.4,1.4l-90.3,52.1c-.2,0-.3.1-.5.1Z"/>
            </g>
          </g>
          <g>
            <g class="cls-22">
              <path class="cls-11" d="M323.7,196.1c-.3,0-.7-.2-.9-.5-.3-.5-.1-1.1.4-1.4l90.3-52.1c.5-.3,1.1-.1,1.4.4.3.5.1,1.1-.4,1.4l-90.3,52.1c-.2,0-.3.1-.5.1Z"/>
            </g>
            <g class="cls-22">
              <path class="cls-11" d="M331.3,200.5c-.3,0-.7-.2-.9-.5-.3-.5-.1-1.1.4-1.4l90.3-52.1c.5-.3,1.1-.1,1.4.4.3.5.1,1.1-.4,1.4l-90.3,52.1c-.2,0-.3.1-.5.1Z"/>
            </g>
            <g class="cls-22">
              <path class="cls-11" d="M338.8,204.9c-.3,0-.7-.2-.9-.5-.3-.5-.1-1.1.4-1.4l90.3-52.1c.5-.3,1.1-.1,1.4.4s.1,1.1-.4,1.4l-90.3,52.1c-.2,0-.3.1-.5.1Z"/>
            </g>
            <g class="cls-22">
              <path class="cls-11" d="M346.4,209.3c-.3,0-.7-.2-.9-.5-.3-.5-.1-1.1.4-1.4l90.3-52.1c.5-.3,1.1-.1,1.4.4s.1,1.1-.4,1.4l-90.3,52.1c-.2,0-.3.1-.5.1Z"/>
            </g>
            <g class="cls-22">
              <path class="cls-11" d="M353.9,213.6c-.3,0-.7-.2-.9-.5-.3-.5-.1-1.1.4-1.4l90.3-52.1c.5-.3,1.1-.1,1.4.4.3.5.1,1.1-.4,1.4l-90.3,52.1c-.2,0-.3.1-.5.1Z"/>
            </g>
            <g class="cls-22">
              <path class="cls-11" d="M361.4,218c-.3,0-.7-.2-.9-.5-.3-.5-.1-1.1.4-1.4l60.3-34.8c.5-.3,1.1-.1,1.4.4.3.5.1,1.1-.4,1.4l-60.3,34.8c-.2,0-.3.1-.5.1Z"/>
            </g>
            <line class="cls-10" x1="513.7" y1="201.6" x2="436" y2="246.4"/>
            <line class="cls-10" x1="518.1" y1="204.7" x2="480" y2="226.6"/>
            <g class="cls-22">
              <path class="cls-11" d="M436,262.3c-.3,0-.7-.2-.9-.5-.3-.5-.1-1.1.4-1.4l90.3-52.1c.5-.3,1.1-.1,1.4.4.3.5.1,1.1-.4,1.4l-90.3,52.1c-.2,0-.3.1-.5.1Z"/>
            </g>
            <g class="cls-22">
              <path class="cls-11" d="M441.5,267.9c-.3,0-.7-.2-.9-.5-.3-.5-.1-1.1.4-1.4l90.3-52.1c.5-.3,1.1-.1,1.4.4.3.5.1,1.1-.4,1.4l-90.3,52.1c-.2,0-.3.1-.5.1Z"/>
            </g>
            <g class="cls-22">
              <path class="cls-11" d="M445.7,274.2c-.3,0-.7-.2-.9-.5-.3-.5-.1-1.1.4-1.4l90.3-52.1c.5-.3,1.1-.1,1.4.4.3.5.1,1.1-.4,1.4l-90.3,52.1c-.2,0-.3.1-.5.1Z"/>
            </g>
            <g class="cls-22">
              <path class="cls-11" d="M448.7,281.2c-.3,0-.7-.2-.9-.5-.3-.5-.1-1.1.4-1.4l90.3-52.1c.5-.3,1.1-.1,1.4.4.3.5.1,1.1-.4,1.4l-90.3,52.1c-.2,0-.3.1-.5.1Z"/>
            </g>
            <g class="cls-22">
              <path class="cls-11" d="M449.6,289.3c-.3,0-.7-.2-.9-.5-.3-.5-.1-1.1.4-1.4l90.3-52.1c.5-.3,1.1-.1,1.4.4.3.5.1,1.1-.4,1.4l-90.3,52.1c-.2,0-.3.1-.5.1Z"/>
            </g>
          </g>
          <path class="cls-9" d="M443.1,292.4c0-10.4-8.9-23.9-19.9-30.2l-108.7-62.6"/>
        </g>
      </g>
    </g>
    <g id="Speech_Bubble">
      <g id="Speech_Bubble-2" data-name="Speech_Bubble">
        <g id="Speech_Bubble-3" data-name="Speech_Bubble">
          <g id="Speech_Bubble-4" data-name="Speech_Bubble">
            <g>
              <path class="cls-12" d="M258.7,138.1l-11.5-6.6c-.2-.1-.4-.2-.5-.5l-2.1-3.7,6.8-3.9-.2.6,7.5,14.1Z"/>
              <path class="cls-25" d="M258.7,138.1l-11.5-6.6c-.2-.1-.4-.2-.5-.5l-2.1-3.7,6.8-3.9-.2.6,7.5,14.1Z"/>
            </g>
            <path class="cls-12" d="M250.3,124l7.9,13.8c.5.9,1.8.8,2.1-.2l8.4-24.2-18.5,10.7Z"/>
            <path class="cls-16" d="M250.3,124l7.9,13.8c.5.9,1.8.8,2.1-.2l8.4-24.2-18.5,10.7Z"/>
            <path class="cls-12" d="M288.1,43.4c0-3.5-2.5-7.8-5.6-9.6l-.3-.2c-3.1-1.8-8-1.8-11.1,0l-75.6,43.7c-3.1,1.8-5.6,6.1-5.6,9.6v52.4c0,3.5,2.5,7.8,5.6,9.6l.3.2c3.1,1.8,8,1.8,11.1,0l76.1-44.1c5-2.8,5-5.7,5-9.2v-52.4Z"/>
            <path class="cls-16" d="M288.1,43.4c0-3.5-2.5-7.8-5.6-9.6l-.3-.2c-3.1-1.8-8-1.8-11.1,0l-75.6,43.7c-3.1,1.8-5.6,6.1-5.6,9.6v52.4c0,3.5,2.5,7.8,5.6,9.6l.3.2c3.1,1.8,8,1.8,11.1,0l76.1-44.1c5-2.8,5-5.7,5-9.2v-52.4Z"/>
            <path class="cls-12" d="M190,139.3c0,3.5,2.5,7.8,5.6,9.6l.3.2c2.8,1.6,7.1,1.8,10.2.5-2.6,1-4.6-.5-4.6-3.7v-52.4c0-1.8.6-3.7,1.6-5.5l-11.4-6.6c-1,1.7-1.6,3.7-1.6,5.5v52.4Z"/>
            <path class="cls-17" d="M287.9,41.8c-.6-2.4-2.8-3.1-5.4-1.6l-75.6,43.7c-1.5.9-2.9,2.4-3.9,4.1l-11.4-6.6c1-1.8,2.4-3.3,3.9-4.1l75.6-43.7c3.1-1.8,8.1-1.8,11.1,0l.3.2c2.6,1.5,4.8,4.9,5.4,8Z"/>
          </g>
        </g>
        <g id="Notification">
          <g>
            <path class="cls-26" d="M209.4,70.8l-5.5-3.2s0,0,0,0h0s0,0,0,0c-2.4-1.4-5.7-1.2-9.4,1-7.4,4.2-13.3,14.6-13.3,23.1s1.5,7.2,3.9,8.6h0s0,0,0,0h0s5,2.9,5,2.9l1.2-2c1.2-.3,2.5-.7,3.8-1.5,7.4-4.2,13.3-14.6,13.3-23.1,0-1.3-.2-2.4-.4-3.4l1.4-2.4Z"/>
            <path d="M181.6,87.2c-.3,1.5-.5,3-.5,4.5,0,4.2,1.5,7.2,3.9,8.6h0s0,0,0,0h0s5,2.9,5,2.9l1.2-2c1.2-.3,2.5-.7,3.8-1.5,1.3-.7,2.5-1.6,3.6-2.7l-17.1-9.8Z"/>
            <path class="cls-23" d="M199.7,71.6c-7.4,4.2-13.3,14.6-13.3,23.1,0,8.5,6,11.9,13.3,7.7,7.4-4.2,13.3-14.6,13.3-23.1,0-8.5-6-11.9-13.3-7.7Z"/>
            <g>
              <path class="cls-20" d="M205,83.4v-3.3c0-3.7-2.3-5.4-5.1-3.8h0c-2.8,1.6-5.1,5.9-5.1,9.7v2.9c0,1.8-.6,3.9-1.7,5.7,0,0,0,0,0,0-.3.5-.4,1-.4,1.5h0c0,.9.6,1.4,1.3,1l11.8-6.8c.7-.4,1.3-1.5,1.3-2.4h0c0-.5-.1-.8-.4-1,0,0,0,0,0,0-1-.5-1.7-1.6-1.7-3.4Z"/>
              <path class="cls-20" d="M202.3,93.3c0,1.8-1.1,3.9-2.4,4.6-1.3.8-2.4,0-2.4-1.8l4.9-2.8Z"/>
            </g>
          </g>
        </g>
        <g>
          <line class="cls-6" x1="209.7" y1="102" x2="279.1" y2="61.8"/>
          <line class="cls-6" x1="209.7" y1="115.3" x2="279.1" y2="75.1"/>
          <line class="cls-6" x1="209.7" y1="128.5" x2="279.1" y2="88.3"/>
        </g>
      </g>
    </g>
  </g>
</svg>